<svg width="1440" height="568" viewBox="0 0 1440 568" fill="none" xmlns="http://www.w3.org/2000/svg">
<path d="M1 0H1441V564H1V0Z" fill="url(#paint0_linear)"/>
<path d="M0 0H1440V568H0V0Z" fill="url(#paint1_linear)"/>
<circle cx="917" cy="282" r="148" fill="url(#paint2_linear)"/>
<path d="M1441 388.5L1422 359L1361 425L1298.5 340L1229 402.5L1204 374.5L1154 316.5L1107 374.5L1042.5 304.5L969.5 359L893.5 289.5L773 374.5L674 264.5L618.5 316.5L583.5 289.5L502 359L466 340L374 425L320 374.5L280 402.5L215.5 340L160 402.5L83 374.5L-5 447V567.5H1441V388.5Z" fill="#340034"/>
<rect width="1440" height="6" fill="black" fill-opacity="0.05"/>
<rect y="10" width="1440" height="6" fill="black" fill-opacity="0.05"/>
<rect y="20" width="1440" height="6" fill="black" fill-opacity="0.05"/>
<rect y="30" width="1440" height="6" fill="black" fill-opacity="0.05"/>
<rect y="40" width="1440" height="6" fill="black" fill-opacity="0.05"/>
<rect y="50" width="1440" height="6" fill="black" fill-opacity="0.05"/>
<rect y="60" width="1440" height="6" fill="black" fill-opacity="0.05"/>
<rect y="70" width="1440" height="6" fill="black" fill-opacity="0.05"/>
<rect y="80" width="1440" height="6" fill="black" fill-opacity="0.05"/>
<rect y="90" width="1440" height="6" fill="black" fill-opacity="0.05"/>
<rect y="100" width="1440" height="6" fill="black" fill-opacity="0.05"/>
<rect y="110" width="1440" height="6" fill="black" fill-opacity="0.05"/>
<rect y="120" width="1440" height="6" fill="black" fill-opacity="0.05"/>
<rect y="130" width="1440" height="6" fill="black" fill-opacity="0.05"/>
<rect y="140" width="1440" height="6" fill="black" fill-opacity="0.05"/>
<rect y="150" width="1440" height="6" fill="black" fill-opacity="0.05"/>
<rect y="160" width="1440" height="6" fill="black" fill-opacity="0.05"/>
<rect y="170" width="1440" height="6" fill="black" fill-opacity="0.05"/>
<rect y="180" width="1440" height="6" fill="black" fill-opacity="0.05"/>
<rect y="190" width="1440" height="6" fill="black" fill-opacity="0.05"/>
<rect y="200" width="1440" height="6" fill="black" fill-opacity="0.05"/>
<rect y="210" width="1440" height="6" fill="black" fill-opacity="0.05"/>
<rect y="220" width="1440" height="6" fill="black" fill-opacity="0.05"/>
<rect y="230" width="1440" height="6" fill="black" fill-opacity="0.05"/>
<rect y="240" width="1440" height="6" fill="black" fill-opacity="0.05"/>
<rect y="250" width="1440" height="6" fill="black" fill-opacity="0.05"/>
<rect y="260" width="1440" height="6" fill="black" fill-opacity="0.05"/>
<rect y="270" width="1440" height="6" fill="black" fill-opacity="0.05"/>
<rect y="280" width="1440" height="6" fill="black" fill-opacity="0.05"/>
<rect y="290" width="1440" height="6" fill="black" fill-opacity="0.05"/>
<rect y="300" width="1440" height="6" fill="black" fill-opacity="0.05"/>
<rect y="310" width="1440" height="6" fill="black" fill-opacity="0.05"/>
<rect y="320" width="1440" height="6" fill="black" fill-opacity="0.05"/>
<rect y="330" width="1440" height="6" fill="black" fill-opacity="0.05"/>
<rect y="340" width="1440" height="6" fill="black" fill-opacity="0.05"/>
<rect y="350" width="1440" height="6" fill="black" fill-opacity="0.05"/>
<rect y="360" width="1440" height="6" fill="black" fill-opacity="0.05"/>
<rect y="370" width="1440" height="6" fill="black" fill-opacity="0.05"/>
<rect y="380" width="1440" height="6" fill="black" fill-opacity="0.05"/>
<rect y="390" width="1440" height="6" fill="black" fill-opacity="0.05"/>
<rect y="400" width="1440" height="6" fill="black" fill-opacity="0.05"/>
<rect y="410" width="1440" height="6" fill="black" fill-opacity="0.05"/>
<rect y="420" width="1440" height="6" fill="black" fill-opacity="0.05"/>
<rect y="430" width="1440" height="6" fill="black" fill-opacity="0.05"/>
<rect y="440" width="1440" height="6" fill="black" fill-opacity="0.05"/>
<rect y="450" width="1440" height="6" fill="black" fill-opacity="0.05"/>
<rect y="460" width="1440" height="6" fill="black" fill-opacity="0.05"/>
<rect y="470" width="1440" height="6" fill="black" fill-opacity="0.05"/>
<path d="M-1 465.5L61.5 403L103 436L179.5 375L211 403L247.5 436L301.5 403L374.5 478L470 403L510 436L630 300.5L699.5 375L803.5 248.5L920 375L958.5 341.5L1017.5 403L1047 375L1097.41 403L1120 375L1160 403L1207 359.5L1316 465.5L1354 436L1396 465.5L1445 375V568H-1V465.5Z" fill="black"/>
<defs>
<linearGradient id="paint0_linear" x1="721" y1="0" x2="721" y2="564" gradientUnits="userSpaceOnUse">
<stop/>
<stop offset="1" stop-color="#4F006B"/>
</linearGradient>
<linearGradient id="paint1_linear" x1="720" y1="0" x2="720" y2="568" gradientUnits="userSpaceOnUse">
<stop/>
<stop offset="1" stop-color="#4F006B"/>
</linearGradient>
<linearGradient id="paint2_linear" x1="917" y1="134" x2="917" y2="346" gradientUnits="userSpaceOnUse">
<stop stop-color="#DE6EFF"/>
<stop offset="0.656327" stop-color="#5B1C71" stop-opacity="0.46875"/>
<stop offset="1" stop-color="#2B0043" stop-opacity="0"/>
</linearGradient>
</defs>
</svg>
